<?xml version="1.0" encoding="utf-8"?>
<!-- Generator: Adobe Illustrator 15.0.0, SVG Export Plug-In . SVG Version: 6.00 Build 0)  -->
<!DOCTYPE svg PUBLIC "-//W3C//DTD SVG 1.1//EN" "http://www.w3.org/Graphics/SVG/1.1/DTD/svg11.dtd">
<svg version="1.1" id="Layer_1" xmlns="http://www.w3.org/2000/svg" xmlns:xlink="http://www.w3.org/1999/xlink" x="0px" y="0px"
	 width="300px" height="300px" viewBox="0 0 300 300" enable-background="new 0 0 300 300" xml:space="preserve">
<rect x="-1350" y="-350" fill="none" width="3000" height="1000"/>
<g>
	<path d="M128.117,181.842c-23,0-41.712,18.71-41.712,41.712h14.716c0-14.886,12.11-26.994,26.996-26.994
		c14.885,0,26.997,12.108,26.997,26.994h14.714C169.827,200.552,151.115,181.842,128.117,181.842"/>
	<path d="M273.089,208.795c-8.745,0.213-17.007,0.417-20.266-21.677c-0.51-3.439-1.76-11.77-2.272-15.455
		c-0.598-4.28-1.217-8.714-1.894-13.251c8.581-1.635,17.97-5.374,28.204-12.301l-7.346-12.801
		c-8.58,5.959-16.241,9.19-23.205,10.581c-4.206-23.72-10.854-49.208-24.689-71.642l-2.155-3.496h-38.121l-0.474,0.016
		c-11.523,0.742-21.211,8.487-24.531,19.046h-21.671v22.221c0,1.519,0.074,2.971,0.182,4.392H96.772
		c-22.981,0-41.758,18.29-42.567,41.078l-0.03-0.003c-1.442,15.017-13.925,26.338-29.037,26.338v14.715
		c11.116,0,21.28-4.081,29.026-10.889v37.886h14.717v-66.517c0-15.381,12.512-27.892,27.89-27.892h41.425
		c3.411,8.397,8.744,14.155,13.521,17.912c8.881,6.983,23.319,11.02,35.609,11.111v0.261v10.639v54.486h14.716v-54.486v-10.639
		v-9.335c8.462,4.182,19.036,9.26,31.862,10.179c0.749,4.952,1.425,9.78,2.069,14.424c0.519,3.725,1.776,12.094,2.289,15.572
		c4.701,31.85,21.936,34.285,32.338,34.285c1.021,0,1.979-0.022,2.852-0.045c0.649-0.017,1.276-0.033,1.874-0.035l-0.097-14.717
		C274.549,208.762,273.832,208.778,273.089,208.795 M207.945,135.597c-7.312-3.611-13.618-6.737-20.229-6.737v14.592
		c-13.386-0.008-38.333-7.053-38.333-33.415v-7.504h20.474v-7.358c0-0.105,0.007-0.401,0.073-0.907
		c0.756-5.805,5.649-10.315,11.677-10.798h29.563c10.771,18.849,16.481,40.324,20.237,60.754
		C222.717,142.896,215.116,139.146,207.945,135.597"/>
</g>
<rect x="-1350" y="-216.154" fill="none" width="3000" height="1000"/>
</svg>
